<?xml version="1.0" encoding="iso-8859-1"?>
<!-- Generator: Adobe Illustrator 17.1.0, SVG Export Plug-In . SVG Version: 6.00 Build 0)  -->
<!DOCTYPE svg PUBLIC "-//W3C//DTD SVG 1.1//EN" "http://www.w3.org/Graphics/SVG/1.1/DTD/svg11.dtd">
<svg version="1.1" id="Capa_1" xmlns="http://www.w3.org/2000/svg" xmlns:xlink="http://www.w3.org/1999/xlink" x="0px" y="0px"
	 viewBox="0 0 487.705 487.705" style="enable-background:new 0 0 487.705 487.705;" xml:space="preserve">
<path d="M136.65,370.096c0-2.762,2.238-5,5-5h261.752c2.762,0,5,2.238,5,5s-2.238,5-5,5H141.65
	C138.889,375.096,136.65,372.857,136.65,370.096z M106.206,370.096c0,2.762,2.238,5,5,5h7.582c2.762,0,5-2.238,5-5s-2.238-5-5-5
	h-7.582C108.444,365.096,106.206,367.334,106.206,370.096z M403.402,395.425H118.788c-2.762,0-5,2.238-5,5s2.238,5,5,5h284.614
	c2.762,0,5-2.238,5-5S406.164,395.425,403.402,395.425z M403.402,425.755H116.121c-2.762,0-5,2.238-5,5s2.238,5,5,5h287.281
	c2.762,0,5-2.238,5-5S406.164,425.755,403.402,425.755z M167.823,215.86h261.752c2.762,0,5-2.238,5-5s-2.238-5-5-5H167.823
	c-2.762,0-5,2.238-5,5S165.062,215.86,167.823,215.86z M132.379,210.86c0,2.762,2.238,5,5,5h7.582c2.762,0,5-2.238,5-5s-2.238-5-5-5
	h-7.582C134.617,205.86,132.379,208.099,132.379,210.86z M429.575,236.19H144.961c-2.762,0-5,2.238-5,5s2.238,5,5,5h284.614
	c2.762,0,5-2.238,5-5S432.337,236.19,429.575,236.19z M429.575,266.52H142.293c-2.762,0-5,2.238-5,5s2.238,5,5,5h287.282
	c2.762,0,5-2.238,5-5S432.337,266.52,429.575,266.52z M464.904,164.235v21.563c0,2.762-2.238,5-5,5h-10.165v106.109h10.165
	c2.762,0,5,2.238,5,5v21.563c0,2.762-2.238,5-5,5h-21.173v16.563c0,2.762-2.238,5-5,5h-10.165v106.108h10.165c2.762,0,5,2.238,5,5
	v21.563c0,2.762-2.238,5-5,5H107.418c-46.658,0-84.617-37.959-84.617-84.617c0-42.585,31.626-77.907,72.621-83.753
	c-27.529-13.977-46.448-42.553-46.448-75.483c0-32.255,18.146-60.344,44.761-74.617H53.974c-2.762,0-5-2.238-5-5v-21.563
	c0-2.762,2.238-5,5-5h10.165V31.563H53.974c-2.762,0-5-2.238-5-5V5c0-2.762,2.238-5,5-5h326.313
	c46.658,0,84.617,37.959,84.617,84.617c0,32.255-18.146,60.344-44.761,74.618h39.761
	C462.666,159.235,464.904,161.474,464.904,164.235z M74.139,137.672h303.662c4.777,0,9.404-0.645,13.81-1.834
	c-4.784-8.534-12.53-26.208-12.53-51.22c0-20.713,8.584-41.533,13.101-51.057c-4.577-1.291-9.397-1.997-14.382-1.997H74.139V137.672
	z M401.547,37.196c-4.017,8.404-12.466,28.349-12.466,47.421c0,24.203,8.09,40.928,12.034,47.644
	c17.597-8.646,29.741-26.75,29.741-47.644C430.855,63.897,418.909,45.925,401.547,37.196z M133.591,159.235h246.696
	c41.145,0,74.617-33.474,74.617-74.618S421.432,10,380.287,10H58.974v11.563h318.827c8.048,0,15.74,1.532,22.823,4.293
	c0.251,0.072,0.494,0.177,0.737,0.291c23.128,9.353,39.494,32.03,39.494,58.47c0,26.41-16.328,49.065-39.413,58.439
	c-0.247,0.122-0.499,0.221-0.757,0.299c-7.1,2.776-14.813,4.317-22.885,4.317H58.974v11.563H133.591z M413.566,350.033H109.904
	c-4.985,0-9.805,0.706-14.382,1.997c4.517,9.524,13.101,30.344,13.101,51.057c0,25.013-7.746,42.686-12.53,51.22
	c4.406,1.189,9.033,1.834,13.81,1.834h303.662V350.033z M86.591,450.731c3.938-6.707,12.033-23.434,12.033-47.645
	c0-19.122-8.446-39.033-12.463-47.423c-17.363,8.729-29.311,26.702-29.311,47.424C56.85,423.981,68.994,442.086,86.591,450.731z
	 M428.731,328.47H133.591h-26.173c-41.145,0-74.617,33.474-74.617,74.618s33.473,74.617,74.617,74.617h321.313v-11.563H109.904
	c-8.057,0-15.757-1.535-22.847-4.302c-0.32-0.094-0.636-0.21-0.938-0.371c-23.01-9.409-39.27-32.026-39.27-58.381
	c0-26.44,16.365-49.116,39.491-58.47c0.244-0.115,0.49-0.22,0.742-0.293c7.082-2.76,14.774-4.292,22.821-4.292h318.827V328.47z
	 M439.739,190.798H136.076c-4.984,0-9.804,0.706-14.381,1.997c4.517,9.523,13.101,30.344,13.101,51.058
	c0,25.013-7.746,42.686-12.529,51.22c4.406,1.189,9.033,1.834,13.81,1.834h303.663V190.798z M112.764,291.497
	c3.938-6.707,12.032-23.435,12.032-47.645c0-19.074-8.45-39.02-12.466-47.422c-17.361,8.729-29.307,26.701-29.307,47.422
	C83.022,264.747,95.167,282.852,112.764,291.497z M454.904,169.235h-74.617H133.591c-41.144,0-74.617,33.473-74.617,74.617
	s33.474,74.617,74.617,74.617h300.141h21.173v-11.563H136.076c-8.057,0-15.757-1.535-22.847-4.302
	c-0.32-0.094-0.635-0.21-0.937-0.37c-23.01-9.409-39.27-32.027-39.27-58.383c0-26.473,16.406-49.172,39.579-58.504
	c0.211-0.094,0.422-0.189,0.639-0.252c7.087-2.764,14.784-4.298,22.836-4.298h318.828V169.235z M84.303,56.625h261.752
	c2.762,0,5-2.238,5-5s-2.238-5-5-5H84.303c-2.762,0-5,2.238-5,5S81.541,56.625,84.303,56.625z M368.917,56.625h7.582
	c2.762,0,5-2.238,5-5s-2.238-5-5-5h-7.582c-2.762,0-5,2.238-5,5S366.155,56.625,368.917,56.625z M84.303,86.955h284.614
	c2.762,0,5-2.238,5-5s-2.238-5-5-5H84.303c-2.762,0-5,2.238-5,5S81.541,86.955,84.303,86.955z M371.584,107.284H84.303
	c-2.762,0-5,2.238-5,5s2.238,5,5,5h287.281c2.762,0,5-2.238,5-5S374.346,107.284,371.584,107.284z"/>
<g>
</g>
<g>
</g>
<g>
</g>
<g>
</g>
<g>
</g>
<g>
</g>
<g>
</g>
<g>
</g>
<g>
</g>
<g>
</g>
<g>
</g>
<g>
</g>
<g>
</g>
<g>
</g>
<g>
</g>
</svg>
