<?xml version="1.0" encoding="iso-8859-1"?>
<!-- Generator: Adobe Illustrator 19.0.0, SVG Export Plug-In . SVG Version: 6.00 Build 0)  -->
<svg xmlns="http://www.w3.org/2000/svg" xmlns:xlink="http://www.w3.org/1999/xlink" version="1.1" id="Layer_1" x="0px" y="0px" viewBox="0 0 218.51 218.51" style="enable-background:new 0 0 218.51 218.51;" xml:space="preserve" width="512px" height="512px">
<g>
	<g>
		<path d="M192.307,83.05c-1.608-1.608-4.214-1.608-5.822,0c-1.609,1.608-1.608,4.214,0,5.822l16.264,16.264h-75.217    c-0.827-20.062-7.664-38.59-18.754-53.846l40.471-26.981l-5.38,21.564c-0.547,2.207,0.792,4.443,2.999,4.994    c0.334,0.08,0.672,0.121,1.001,0.121c1.845,0,3.522-1.25,3.993-3.12l8.963-35.954l-35.95-8.966    c-2.208-0.536-4.439,0.795-4.994,2.999c-0.547,2.207,0.796,4.443,2.999,4.994l22.982,5.73l-42.22,28.147    c-18.135-21.029-44.94-34.38-74.821-34.38v8.235c27.026,0,51.309,11.912,67.92,30.745l-17.354,11.57    C66.633,47.631,48.703,39.259,28.821,39.259h-4.117v41.502C10.762,82.77,0,94.764,0,109.253c0,14.489,10.762,26.483,24.704,28.492    v41.502h4.117c19.882,0,37.812-8.372,50.565-21.728l17.354,11.57c-16.61,18.833-40.893,30.745-67.92,30.745v8.235    c29.881,0,56.686-13.351,74.821-34.38l42.22,28.147l-22.982,5.73c-2.204,0.551-3.546,2.787-2.999,4.994    c0.471,1.87,2.147,3.12,3.993,3.12c0.33,0,0.667-0.04,1.001-0.121l35.95-8.966l-8.963-35.954    c-0.555-2.204-2.799-3.538-4.994-2.999c-2.207,0.551-3.546,2.787-2.999,4.994l5.38,21.564l-40.471-26.981    c11.09-15.256,17.927-33.784,18.754-53.846h75.217l-16.264,16.264c-1.608,1.608-1.608,4.214,0,5.822    c0.804,0.804,1.858,1.206,2.911,1.206s2.107-0.402,2.911-1.206l26.204-26.204L192.307,83.05z M90.379,105.136    c0,0-33.066,0-33.066,0c-0.818-5.678-3.286-10.817-6.917-14.925l27.516-18.344C85.059,81.228,89.552,92.683,90.379,105.136z     M32.939,47.63c15.384,1.018,29.205,7.736,39.479,18.003L43.827,84.694c-3.263-2.001-6.944-3.365-10.888-3.933V47.63z     M8.235,109.253c0-11.351,9.236-20.587,20.587-20.587c11.351,0,20.587,9.236,20.587,20.587c0,11.351-9.236,20.587-20.587,20.587    C17.471,129.84,8.235,120.603,8.235,109.253z M32.938,170.876v-33.131c3.944-0.569,7.626-1.932,10.888-3.933l28.591,19.061    C62.144,163.139,48.323,169.858,32.938,170.876z M77.913,146.639l-27.516-18.344c3.631-4.109,6.098-9.247,6.917-14.925H90.38    C89.553,125.823,85.06,137.278,77.913,146.639z M101.928,162.649l-17.196-11.464c8.023-10.67,13.046-23.672,13.875-37.815h20.691    C118.471,131.744,112.143,148.702,101.928,162.649z M98.607,105.136c-0.829-14.143-5.852-27.145-13.875-37.815l17.196-11.464    c10.215,13.947,16.543,30.905,17.37,49.279H98.607z" fill="#119977"/>
	</g>
</g>
<g>
</g>
<g>
</g>
<g>
</g>
<g>
</g>
<g>
</g>
<g>
</g>
<g>
</g>
<g>
</g>
<g>
</g>
<g>
</g>
<g>
</g>
<g>
</g>
<g>
</g>
<g>
</g>
<g>
</g>
</svg>
