<?xml version="1.0" encoding="iso-8859-1"?>
<!-- Generator: Adobe Illustrator 16.0.0, SVG Export Plug-In . SVG Version: 6.00 Build 0)  -->
<!DOCTYPE svg PUBLIC "-//W3C//DTD SVG 1.1//EN" "http://www.w3.org/Graphics/SVG/1.1/DTD/svg11.dtd">
<svg version="1.1" id="Capa_1" xmlns="http://www.w3.org/2000/svg" xmlns:xlink="http://www.w3.org/1999/xlink" x="0px" y="0px"
	 width="558.45px" height="558.45px" viewBox="0 0 558.45 558.45" style="enable-background:new 0 0 558.45 558.45;"
	 xml:space="preserve">
<g>
	<g>
		<path d="M126.378,431.001h24.479c3.672,0,6.12-2.448,6.12-6.12v-24.479c0-3.673-2.448-6.12-6.12-6.12h-24.479
			c-3.672,0-6.12,2.447-6.12,6.12v24.479C120.258,428.553,122.706,431.001,126.378,431.001z"/>
		<path d="M126.378,478.737h24.479c3.672,0,6.12-2.448,6.12-6.12v-24.48c0-3.672-2.448-6.12-6.12-6.12h-24.479
			c-3.672,0-6.12,2.448-6.12,6.12v24.48C120.258,476.289,122.706,478.737,126.378,478.737z"/>
		<path d="M176.562,431.001h24.48c3.672,0,6.12-2.448,6.12-6.12v-24.479c0-3.673-2.448-6.12-6.12-6.12h-24.48
			c-3.672,0-6.12,2.447-6.12,6.12v24.479C170.441,428.553,172.89,431.001,176.562,431.001z"/>
		<path d="M176.562,478.737h24.48c3.672,0,6.12-2.448,6.12-6.12v-24.48c0-3.672-2.448-6.12-6.12-6.12h-24.48
			c-3.672,0-6.12,2.448-6.12,6.12v24.48C170.441,476.289,172.89,478.737,176.562,478.737z"/>
		<path d="M357.714,431.001h24.48c3.672,0,6.119-2.448,6.119-6.12v-24.479c0-3.673-2.447-6.12-6.119-6.12h-24.48
			c-3.672,0-6.12,2.447-6.12,6.12v24.479C351.594,428.553,354.042,431.001,357.714,431.001z"/>
		<path d="M357.714,478.737h24.48c3.672,0,6.119-2.448,6.119-6.12v-24.48c0-3.672-2.447-6.12-6.119-6.12h-24.48
			c-3.672,0-6.12,2.448-6.12,6.12v24.48C351.594,476.289,354.042,478.737,357.714,478.737z"/>
		<path d="M407.897,431.001h24.48c3.672,0,6.12-2.448,6.12-6.12v-24.479c0-3.673-2.448-6.12-6.12-6.12h-24.48
			c-3.672,0-6.119,2.447-6.119,6.12v24.479C401.778,428.553,404.226,431.001,407.897,431.001z"/>
		<path d="M407.897,478.737h24.48c3.672,0,6.12-2.448,6.12-6.12v-24.48c0-3.672-2.448-6.12-6.12-6.12h-24.48
			c-3.672,0-6.119,2.448-6.119,6.12v24.48C401.778,476.289,404.226,478.737,407.897,478.737z"/>
		<path d="M554.778,325.737l-51.408-88.128c-3.672-6.12-9.792-9.792-15.912-9.792H363.834v-59.976c0-6.12-3.672-12.24-9.792-15.912
			l-56.304-33.048V96.849h59.976c9.792,0,18.36-8.568,18.36-18.36V39.321c0-9.792-8.568-18.36-18.36-18.36H295.29
			c-2.448-6.12-9.792-9.792-15.912-9.792c-9.792,0-18.36,8.568-18.36,18.36v9.792v40.392v40.392l-56.304,33.048
			c-6.12,3.672-9.792,9.792-9.792,15.912v59.976H71.298c-6.12,0-12.24,3.672-15.912,9.792L2.754,329.409
			c-3.672,6.12-3.672,12.24,0,18.359c3.672,6.12,9.792,9.792,15.912,9.792h37.943v171.36c0,9.792,8.568,18.36,18.36,18.36h408.816
			c9.792,0,18.359-8.568,18.359-18.36v-171.36h37.944l0,0c9.792,0,18.36-8.567,18.36-18.359
			C558.45,333.081,557.226,328.185,554.778,325.737z M231.642,178.857l47.736-26.928l47.736,26.928v47.736h-95.473V178.857
			L231.642,178.857z M465.426,509.337h-134.64v-72.216c0-28.152-23.256-50.185-50.185-50.185c-26.928,0-50.184,23.257-50.184,50.185
			v72.216H95.777V355.113h372.097C465.426,355.113,465.426,509.337,465.426,509.337z M483.786,318.393H74.97h-24.48l30.601-53.855
			h395.353l30.6,53.855H483.786z"/>
	</g>
</g>
<g>
</g>
<g>
</g>
<g>
</g>
<g>
</g>
<g>
</g>
<g>
</g>
<g>
</g>
<g>
</g>
<g>
</g>
<g>
</g>
<g>
</g>
<g>
</g>
<g>
</g>
<g>
</g>
<g>
</g>
</svg>
