<?xml version="1.0" encoding="iso-8859-1"?>
<!-- Generator: Adobe Illustrator 19.0.0, SVG Export Plug-In . SVG Version: 6.00 Build 0)  -->
<svg version="1.1" id="Capa_1" xmlns="http://www.w3.org/2000/svg" xmlns:xlink="http://www.w3.org/1999/xlink" x="0px" y="0px"
	 viewBox="0 0 64 64" style="enable-background:new 0 0 64 64;" xml:space="preserve">
<g>
	<path d="M60.5,0h-48c-0.552,0-1,0.448-1,1v16v3c0,2.757,2.243,5,5,5c1.641,0,3.088-0.806,4-2.031c0.912,1.225,2.359,2.031,4,2.031
		c1.13,0,2.162-0.391,3-1.026V38h-6.586l-3.707-3.707C17.019,34.105,16.765,34,16.5,34h-6v2h5.586l3.414,3.414V52
		c0,2.414,1.721,4.434,4,4.899V64h2v-7h11.232c0.913,4.002,4.494,7,8.768,7s7.855-2.998,8.768-7H56.5c2.757,0,5-2.243,5-5V39
		c0-0.552-0.448-1-1-1h-7V23.974c0.838,0.635,1.87,1.026,3,1.026c2.757,0,5-2.243,5-5v-3V1C61.5,0.448,61.052,0,60.5,0z M43.5,16h-6
		V2h6V16z M45.5,2h6v14h-6V2z M35.5,16h-6V2h6V16z M27.5,16h-6V2h6V16z M29.5,18h6v2c0,1.654-1.346,3-3,3s-3-1.346-3-3V18z M37.5,18
		h6v2c0,1.654-1.346,3-3,3s-3-1.346-3-3V18z M45.5,18h6v2c0,1.654-1.346,3-3,3s-3-1.346-3-3V18z M53.5,2h6v14h-6V2z M13.5,2h6v14h-6
		V2z M16.5,23c-1.654,0-3-1.346-3-3v-2h6v2C19.5,21.654,18.154,23,16.5,23z M24.5,23c-1.654,0-3-1.346-3-3v-2h6v2
		C27.5,21.654,26.154,23,24.5,23z M45.5,62c-3.86,0-7-3.14-7-7s3.14-7,7-7s7,3.14,7,7S49.36,62,45.5,62z M59.5,52
		c0,1.654-1.346,3-3,3h-2c0-4.962-4.038-9-9-9s-9,4.038-9,9h-12c-1.654,0-3-1.346-3-3V40h38V52z M29.5,38V23.974
		c0.838,0.635,1.87,1.026,3,1.026c1.641,0,3.088-0.806,4-2.031c0.912,1.225,2.359,2.031,4,2.031s3.088-0.806,4-2.031
		c0.912,1.225,2.359,2.031,4,2.031c1.13,0,2.162-0.391,3-1.026V38H29.5z M56.5,23c-1.654,0-3-1.346-3-3v-2h6v2
		C59.5,21.654,58.154,23,56.5,23z"/>
	<path d="M11.5,42h-4c-2.757,0-5,2.243-5,5c0,0.552,0.448,1,1,1h1v11v5h2v-4h6v4h2v-5V48h1c0.552,0,1-0.448,1-1
		C16.5,44.243,14.257,42,11.5,42z M7.5,44h4c1.304,0,2.416,0.836,2.829,2H13.5h-8H4.671C5.084,44.836,6.196,44,7.5,44z M12.5,58h-6
		V48h6V58z"/>
</g>
<g>
</g>
<g>
</g>
<g>
</g>
<g>
</g>
<g>
</g>
<g>
</g>
<g>
</g>
<g>
</g>
<g>
</g>
<g>
</g>
<g>
</g>
<g>
</g>
<g>
</g>
<g>
</g>
<g>
</g>
</svg>
