<?xml version="1.0" encoding="iso-8859-1"?>
<!-- Generator: Adobe Illustrator 16.0.0, SVG Export Plug-In . SVG Version: 6.00 Build 0)  -->
<!DOCTYPE svg PUBLIC "-//W3C//DTD SVG 1.1//EN" "http://www.w3.org/Graphics/SVG/1.1/DTD/svg11.dtd">
<svg xmlns="http://www.w3.org/2000/svg" xmlns:xlink="http://www.w3.org/1999/xlink" version="1.1" id="Capa_1" x="0px" y="0px" width="512px" height="512px" viewBox="0 0 332.996 332.997" style="enable-background:new 0 0 332.996 332.997;" xml:space="preserve">
<g>
	<g>
		<path d="M305.996,99.895h27v-45.08h-27V27.891H27v26.924H0v45.08h27v26.918h45.7l-8.741,9.65c-1.055,1.16-2.054,2.51-3.014,3.937    H27v26.921H0v45.077h27v26.927h24.548v65.78h229.9v-65.78h24.548v-26.922h27v-45.071h-27v-26.927h-33.944    c-0.966-1.432-1.957-2.776-3.012-3.937l-8.743-9.65h45.705V99.895H305.996z M257.038,147.339c1.962,2.17,3.797,5.551,5.241,9.266    c1.783,4.569,2.97,9.655,2.97,13.753v52.767v16.2v49.58H67.748v-49.58v-16.2v-52.767c0-4.098,1.189-9.184,2.972-13.753    c1.444-3.715,3.282-7.095,5.241-9.266l6.286-6.935l1.622-1.787h165.253l1.619,1.787L257.038,147.339z M16.2,196.204v-12.672H27    v12.672H16.2z M43.2,223.125v-10.722v-45.071v-10.727h10.423c-1.318,4.672-2.075,9.429-2.075,13.753v52.767H43.2z     M316.797,183.532v12.672h-10.801v-12.672H316.797z M289.797,156.605v10.727v45.071v10.722h-8.349v-52.767    c0-4.324-0.754-9.081-2.072-13.753H289.797z M316.797,71.015v12.68h-10.801v-12.68H316.797z M16.2,83.695v-12.68H27v12.68H16.2z     M289.797,110.613H43.2V99.895v-45.08V44.091h246.597v10.724v45.08V110.613z" fill="#009900"/>
		<path d="M241.945,156.605c-1.165-0.644-2.479-1.036-3.897-1.036h-143.1c-1.421,0-2.731,0.398-3.895,1.036    c-2.494,1.382-4.206,4.008-4.206,7.066c0,4.467,3.628,8.101,8.1,8.101h143.1c4.473,0,8.101-3.634,8.101-8.101    C246.148,160.613,244.435,157.987,241.945,156.605z" fill="#009900"/>
	</g>
</g>
<g>
</g>
<g>
</g>
<g>
</g>
<g>
</g>
<g>
</g>
<g>
</g>
<g>
</g>
<g>
</g>
<g>
</g>
<g>
</g>
<g>
</g>
<g>
</g>
<g>
</g>
<g>
</g>
<g>
</g>
</svg>
