<?xml version="1.0" encoding="iso-8859-1"?>
<!-- Generator: Adobe Illustrator 19.0.0, SVG Export Plug-In . SVG Version: 6.00 Build 0)  -->
<svg xmlns="http://www.w3.org/2000/svg" xmlns:xlink="http://www.w3.org/1999/xlink" version="1.1" id="Layer_1" x="0px" y="0px" viewBox="0 0 512 512" style="enable-background:new 0 0 512 512;" xml:space="preserve" width="512px" height="512px">
<g>
	<g>
		<g>
			<path d="M441.498,97.996h-243.2l155.158-57.325c10.123-3.74,15.298-14.978,11.558-25.102     c-3.739-10.123-14.978-15.296-25.1-11.556L85.532,97.996H70.502C31.627,97.996,0,129.623,0,168.499V438.7     c0,38.875,31.627,70.503,70.502,70.503h370.996c38.875,0,70.502-31.627,70.502-70.503V168.499     C512,129.623,480.373,97.996,441.498,97.996z M472.919,438.7c0,17.326-14.095,31.422-31.421,31.422H70.502     c-17.326,0-31.421-14.095-31.421-31.422V168.499c0-17.326,14.095-31.422,31.421-31.422h18.394c0.044,0,0.089,0.005,0.133,0.005     c0.039,0,0.078-0.005,0.116-0.005h352.353c17.326,0,31.421,14.095,31.421,31.422V438.7z" fill="#D80027"/>
			<path d="M422.974,170.271H89.026c-10.792,0-19.54,8.749-19.54,19.54c0,10.792,8.749,19.54,19.54,19.54h333.949     c10.792,0,19.54-8.749,19.54-19.54C442.514,179.02,433.767,170.271,422.974,170.271z" fill="#D80027"/>
			<path d="M422.974,229.512H226.143c-10.792,0-19.54,8.749-19.54,19.54v58.069v58.069v58.069c0,10.792,8.749,19.54,19.54,19.54     h196.832c10.792,0,19.54-8.749,19.54-19.54v-58.069v-58.069v-58.069C442.514,238.26,433.767,229.512,422.974,229.512z      M245.683,268.593h157.75v18.988h-157.75V268.593z M403.435,403.718H245.683V384.73h157.751V403.718z M403.435,345.649h-0.001     h-157.75v-18.988h157.751V345.649z" fill="#D80027"/>
			<path d="M163.555,229.512H89.026c-10.792,0-19.54,8.749-19.54,19.54v74.529c0,10.792,8.749,19.54,19.54,19.54h74.529     c10.792,0,19.54-8.749,19.54-19.54v-74.529C183.095,238.26,174.346,229.512,163.555,229.512z M108.567,304.039v-35.448h35.448     c0,0,0,35.448,0,35.448H108.567z" fill="#D80027"/>
			<path d="M163.555,354.132H89.026c-10.792,0-19.54,8.749-19.54,19.54c0,10.792,8.749,19.54,19.54,19.54h74.529     c10.792,0,19.54-8.749,19.54-19.54C183.095,362.88,174.346,354.132,163.555,354.132z" fill="#D80027"/>
			<path d="M163.555,403.718H89.026c-10.792,0-19.54,8.749-19.54,19.54s8.749,19.54,19.54,19.54h74.529     c10.792,0,19.54-8.749,19.54-19.54C183.095,412.465,174.346,403.718,163.555,403.718z" fill="#D80027"/>
		</g>
	</g>
</g>
<g>
</g>
<g>
</g>
<g>
</g>
<g>
</g>
<g>
</g>
<g>
</g>
<g>
</g>
<g>
</g>
<g>
</g>
<g>
</g>
<g>
</g>
<g>
</g>
<g>
</g>
<g>
</g>
<g>
</g>
</svg>
