<?xml version="1.0" encoding="iso-8859-1"?>
<!-- Generator: Adobe Illustrator 16.0.0, SVG Export Plug-In . SVG Version: 6.00 Build 0)  -->
<!DOCTYPE svg PUBLIC "-//W3C//DTD SVG 1.1//EN" "http://www.w3.org/Graphics/SVG/1.1/DTD/svg11.dtd">
<svg xmlns="http://www.w3.org/2000/svg" xmlns:xlink="http://www.w3.org/1999/xlink" version="1.1" id="Capa_1" x="0px" y="0px" width="512px" height="512px" viewBox="0 0 94.071 94.071" style="enable-background:new 0 0 94.071 94.071;" xml:space="preserve">
<g>
	<path d="M90.729,84.263v-56.81H49.447L74.155,2.739L71.418,0L47.036,24.378L22.662,0L19.92,2.739l24.703,24.713H3.342v56.814H35.23   v4.202h-8.002v5.603h39.614v-5.603h-8.002v-4.202h31.889V84.263z M84.918,74.466H68.571c-0.355-6.75-3.777-12.656-8.919-16.372   c0.903-1.199,1.651-2.531,2.192-3.987c1.752-0.079,3.159-1.932,3.159-4.201c0-1.742-0.855-3.231-2.092-3.841   c0.34-3.045,0.308-8.019-4.14-11.343c-0.712-0.533-1.412-1.014-2.102-1.46h28.261v41.205H84.918z M50.195,73.22v-3.974h-0.429   c0.133-0.258,0.243-0.54,0.287-0.837h-0.963c-0.014,0.283-0.037,0.562-0.08,0.837h-0.443c0.049-0.271,0.073-0.554,0.082-0.837   h-1.438v0.837h-0.441v-0.842H45.34c0.014,0.283,0.049,0.566,0.091,0.84H44.99c-0.042-0.273-0.078-0.557-0.091-0.84h-0.867   c0.054,0.297,0.154,0.58,0.297,0.84h-0.439v3.974h1.507l0.078,1.245h-4.266v-11.19c1.82,0.725,3.8,1.117,5.844,1.117   c2.474,0,4.85-0.574,6.971-1.624V74.47h-5.4l0.081-1.245H50.2V73.22H50.195z M44.232,72.871v-3.269h5.611v3.269H44.232z    M31.905,49.159c0.425-1.651,2.747-6.713,9.065-8.175c0.151-0.031,0.287-0.08,0.425-0.118c3.359,2.318,5.055,1.771,8.28,1.168   c0.931-0.172,1.762-0.243,2.56-0.268c1.926-0.066,3.481,0.246,4.731,0.796c2.28,1.411,3.69,3.292,4.466,4.776   c0.461,1.239,0.529,2.22,0.452,2.345c0.031,0.017,0.144-0.191,0.282-0.524c0.068,0.297,0.096,0.488,0.06,0.524   c0.06,0.03,0.365-0.912,0.57-2.342c0.041,0.033,0.063,0.068,0.104,0.105c0.119,0.11,0.242,0.225,0.338,0.358   c0.014,0.014,0.014,0.034,0.027,0.051c0.119,0.163,0.224,0.35,0.311,0.56c0.014,0.02,0.019,0.055,0.027,0.078   c0.077,0.196,0.146,0.401,0.191,0.618c0.046,0.253,0.078,0.524,0.078,0.798c0,1.684-0.949,3.048-2.117,3.073   c-0.019-0.014-0.051-0.019-0.068-0.023c-0.046-0.021-0.075-0.034-0.137-0.038c0,0-0.005,0-0.01,0l-0.456-0.058H61.08l-0.144,0.432   c-0.518,1.53-1.279,2.929-2.212,4.163c-1.12,1.48-2.503,2.724-4.074,3.682c-0.205,0.123-0.42,0.234-0.632,0.344   c-2.094,1.137-4.481,1.777-6.976,1.777c-2.058,0-4.034-0.436-5.84-1.218c-0.606-0.263-1.206-0.563-1.774-0.908   c-1.571-0.958-2.953-2.203-4.069-3.673c-0.939-1.243-1.698-2.641-2.211-4.167l-0.149-0.436l-0.458,0.057c-0.005,0-0.005,0-0.005,0   c-0.061,0.009-0.105,0.019-0.14,0.039c-0.023,0.009-0.051,0.014-0.07,0.022c-1.167-0.027-2.112-1.392-2.112-3.068   c0-0.277,0.031-0.542,0.077-0.798c0.044-0.222,0.114-0.417,0.187-0.618c0.009-0.023,0.014-0.058,0.027-0.082   c0.087-0.206,0.196-0.39,0.307-0.56c0.016-0.02,0.025-0.04,0.039-0.049c0.096-0.138,0.211-0.25,0.33-0.358   c0.038-0.037,0.068-0.074,0.105-0.105c0.211,1.431,0.508,2.37,0.57,2.345C31.809,49.647,31.833,49.456,31.905,49.159z    M9.159,33.261h28.942c-1.619,0.738-3.207,1.878-4.426,3.332c-2.426,2.905-2.756,6.731-2.541,9.497   c-1.226,0.621-2.062,2.098-2.062,3.819c0,2.266,1.411,4.118,3.158,4.197c0.542,1.456,1.296,2.792,2.193,3.987   c-5.142,3.716-8.559,9.631-8.918,16.376H9.159V33.261z M16.233,81.468H9.829v-2.801h6.405V81.468z M38.81,49.684   c0-1.008,0.815-1.819,1.81-1.819c1.01,0,1.825,0.816,1.825,1.819c0,1.006-0.818,1.82-1.825,1.82   C39.62,51.504,38.81,50.681,38.81,49.684z M42.491,58.311c1.067,0.724,2.699,1.187,4.547,1.187s3.477-0.463,4.549-1.187   c-0.739,1.134-2.496,1.923-4.549,1.923S43.224,59.444,42.491,58.311z M51.628,49.684c0-1.008,0.816-1.819,1.82-1.819   c1.001,0,1.82,0.816,1.82,1.819c0,1.006-0.821,1.82-1.82,1.82C52.444,51.504,51.628,50.681,51.628,49.684z M45.455,66.831h1.31   v1.138h-1.436C45.335,67.576,45.382,67.198,45.455,66.831z M46.209,64.878c0.183-0.05,0.37-0.087,0.556-0.107v1.615H45.56   C45.712,65.858,45.929,65.351,46.209,64.878z M48.503,66.831c0.082,0.367,0.124,0.745,0.145,1.138h-1.44v-1.138H48.503z    M45.569,65.131c-0.192,0.401-0.35,0.824-0.461,1.255h-0.785C44.611,65.858,45.041,65.419,45.569,65.131z M49.944,66.831   c0.104,0.314,0.169,0.649,0.169,1.003c0,0.048-0.005,0.087-0.009,0.137h-1.022c-0.022-0.388-0.061-0.766-0.141-1.136h1.001v-0.004   H49.944z M48.393,66.386h-1.186v-1.619c0.159,0.011,0.31,0.029,0.459,0.059C47.977,65.31,48.225,65.829,48.393,66.386z    M49.753,66.386h-0.904c-0.141-0.47-0.32-0.924-0.546-1.354C48.919,65.313,49.433,65.793,49.753,66.386z M44.132,66.831h0.871   c-0.062,0.367-0.109,0.745-0.119,1.138h-0.914c-0.004-0.048-0.009-0.091-0.009-0.144C43.964,67.48,44.027,67.141,44.132,66.831z    M48.351,70.774h0.296v0.032c-0.03,0-0.04,0.007-0.054,0.016c-0.022,0.01-0.033,0.027-0.038,0.048   c-0.004,0.01-0.027,0.048-0.053,0.135l-0.359,0.942h-0.038l-0.283-0.737l-0.31,0.737h-0.033l-0.378-0.929   c-0.044-0.101-0.063-0.155-0.081-0.173c-0.01-0.023-0.042-0.032-0.073-0.039v-0.027h0.493v0.027c-0.037,0-0.058,0.007-0.072,0.021   c-0.019,0.009-0.024,0.022-0.024,0.046c0,0.018,0.01,0.059,0.042,0.137l0.227,0.552l0.18-0.434l-0.049-0.123   c-0.024-0.063-0.049-0.116-0.057-0.139c-0.019-0.025-0.032-0.044-0.049-0.048c-0.023-0.01-0.049-0.014-0.085-0.014v-0.032h0.555   v0.032c-0.04,0-0.065,0.004-0.082,0.004c-0.014,0.005-0.022,0.014-0.032,0.019c0,0.014-0.007,0.025-0.007,0.039   s0.011,0.048,0.039,0.118l0.213,0.541l0.179-0.493c0.026-0.046,0.04-0.087,0.04-0.101c0.009-0.022,0.015-0.036,0.015-0.052   c0-0.023-0.015-0.039-0.029-0.048c-0.021-0.014-0.049-0.025-0.086-0.025v-0.032H48.351z M49.483,71.397   c0.049,0.053,0.073,0.128,0.073,0.2c0,0.092-0.038,0.176-0.115,0.244c-0.072,0.066-0.168,0.105-0.286,0.105   c-0.038,0-0.064-0.005-0.096-0.01c-0.038-0.014-0.078-0.029-0.12-0.048c-0.035-0.014-0.054-0.018-0.067-0.018   c-0.02,0-0.033,0.004-0.049,0.018c-0.018,0.014-0.028,0.027-0.042,0.051h-0.033v-0.434h0.033c0.027,0.128,0.076,0.215,0.145,0.278   c0.069,0.062,0.145,0.094,0.229,0.094c0.062,0,0.118-0.014,0.154-0.046c0.031-0.039,0.051-0.073,0.051-0.13   c0-0.022-0.017-0.046-0.03-0.071c-0.01-0.024-0.038-0.05-0.057-0.072c-0.035-0.023-0.086-0.053-0.156-0.092   c-0.1-0.048-0.178-0.091-0.227-0.128c-0.049-0.038-0.087-0.077-0.109-0.125c-0.026-0.046-0.04-0.091-0.04-0.144   c0-0.092,0.04-0.169,0.104-0.239c0.063-0.058,0.149-0.097,0.245-0.097c0.047,0,0.083,0.01,0.12,0.021   c0.022,0.004,0.054,0.018,0.096,0.036c0.039,0.021,0.059,0.029,0.076,0.029c0.016,0,0.029-0.004,0.033-0.016   c0.01-0.014,0.019-0.032,0.023-0.062h0.03l0.01,0.383h-0.038c-0.014-0.096-0.052-0.173-0.118-0.234   c-0.063-0.058-0.139-0.087-0.21-0.087c-0.052,0-0.101,0.016-0.139,0.048c-0.033,0.032-0.049,0.068-0.049,0.109   c0,0.022,0.014,0.05,0.022,0.063c0.018,0.032,0.045,0.053,0.078,0.083c0.027,0.018,0.082,0.048,0.187,0.096   C49.352,71.271,49.433,71.333,49.483,71.397z M46.819,71.555h0.032l-0.049,0.362h-0.99v-0.036h0.045   c0.027,0,0.056-0.005,0.074-0.014c0.017-0.009,0.026-0.022,0.031-0.041c0.014-0.014,0.014-0.05,0.014-0.109v-0.753   c0-0.055,0-0.082-0.009-0.096c-0.005-0.022-0.014-0.032-0.031-0.05c-0.019-0.014-0.049-0.019-0.079-0.019h-0.045v-0.032h0.953   v0.338h-0.032c-0.009-0.082-0.038-0.142-0.063-0.178c-0.032-0.037-0.072-0.058-0.128-0.082c-0.033-0.01-0.091-0.01-0.178-0.01   h-0.119v0.461h0.022c0.073,0,0.129-0.019,0.159-0.068c0.038-0.041,0.055-0.114,0.064-0.201h0.032v0.604H46.49   c-0.009-0.068-0.026-0.12-0.049-0.159c-0.021-0.048-0.049-0.066-0.073-0.082c-0.032-0.014-0.07-0.022-0.128-0.022v0.326   c0,0.062,0.005,0.1,0.009,0.113c0.009,0.014,0.014,0.027,0.035,0.037c0.014,0.009,0.037,0.014,0.065,0.014h0.069   c0.103,0,0.187-0.027,0.255-0.073C46.746,71.732,46.789,71.655,46.819,71.555z M45.359,70.774h0.373v0.032   c-0.049,0.007-0.081,0.016-0.096,0.021c-0.019,0.019-0.032,0.027-0.04,0.048c-0.014,0.022-0.018,0.057-0.018,0.114v0.953h-0.036   l-0.775-0.953v0.728c0,0.068,0.021,0.116,0.049,0.139c0.029,0.025,0.06,0.034,0.101,0.034h0.024v0.037h-0.397V71.89   c0.058,0,0.101-0.009,0.128-0.038c0.026-0.023,0.035-0.066,0.035-0.135v-0.808l-0.023-0.032c-0.026-0.031-0.044-0.055-0.059-0.059   c-0.019-0.01-0.049-0.014-0.074-0.014v-0.032h0.397l0.57,0.707v-0.493c0-0.063-0.009-0.113-0.031-0.141   c-0.023-0.032-0.07-0.051-0.136-0.048v-0.027h0.008V70.774z" fill="#D80027"/>
</g>
<g>
</g>
<g>
</g>
<g>
</g>
<g>
</g>
<g>
</g>
<g>
</g>
<g>
</g>
<g>
</g>
<g>
</g>
<g>
</g>
<g>
</g>
<g>
</g>
<g>
</g>
<g>
</g>
<g>
</g>
</svg>
