<?xml version="1.0" encoding="iso-8859-1"?>
<!-- Generator: Adobe Illustrator 18.0.0, SVG Export Plug-In . SVG Version: 6.00 Build 0)  -->
<!DOCTYPE svg PUBLIC "-//W3C//DTD SVG 1.1//EN" "http://www.w3.org/Graphics/SVG/1.1/DTD/svg11.dtd">
<svg version="1.1" id="Capa_1" xmlns="http://www.w3.org/2000/svg" xmlns:xlink="http://www.w3.org/1999/xlink" x="0px" y="0px"
	 viewBox="0 0 372.083 372.083" style="enable-background:new 0 0 372.083 372.083;" xml:space="preserve">
<g>
	<path d="M369.803,157.268c-7.686-49.085-34.026-92.238-74.168-121.511C255.492,6.483,206.35-5.407,157.268,2.281
		C108.183,9.966,65.03,36.306,35.757,76.449C6.484,116.591-5.405,165.731,2.28,214.815c7.686,49.085,34.026,92.238,74.168,121.511
		c32.175,23.463,70.124,35.757,109.197,35.757c9.676,0,19.427-0.755,29.169-2.28c49.084-7.686,92.238-34.025,121.511-74.168
		C365.599,255.492,377.488,206.352,369.803,157.268z M336.747,255.755c-12.435-6.554-38.624-18.779-78.048-29.331
		c-49.615-13.28-130.433-26.22-236.53-13.933c-0.042-0.257-0.09-0.512-0.13-0.77c-1.092-6.973-1.737-13.948-1.951-20.891
		c12.584-1.83,24.818-3.292,36.703-4.435v4.646c0,5.522,4.477,10,10,10h170.5c4.021,0,7.478-2.378,9.066-5.8
		c6.59,1.389,12.802,2.828,18.579,4.285c42.27,10.66,69.879,23.78,81.421,29.909C343.917,238.437,340.709,247.237,336.747,255.755z
		 M310.344,296.076c-17.011-8.157-47.051-20.465-89.341-30.001c-57.662-13.001-120.362-17.044-186.467-12.036
		c-3.161-7.072-5.836-14.39-7.994-21.916c101.415-11.462,178.546,0.769,225.98,13.353c37.887,10.052,63.163,21.854,74.703,27.894
		c-2.211,3.562-4.563,7.059-7.058,10.481C317.065,288.104,313.783,292.177,310.344,296.076z M267.285,330.889
		c-0.473-0.272-0.967-0.519-1.495-0.716c-42.756-15.968-112.717-34.719-203.717-33.667c-6.454-7.214-12.236-14.948-17.295-23.129
		c128.384-8.125,214.103,21.491,250.474,37.758C286.618,318.703,277.248,325.308,267.285,330.889z M76.791,126.118h92.161v54.924
		h-42.578v-11.333c0-5.522-4.477-10-10-10s-10,4.478-10,10v11.333H76.791V126.118z M227.291,133.911v47.131h-38.339v-53.351v-7.238
		l26.606,9.34L227.291,133.911z M102.655,106.118l19.71-9.04l25.752,9.04H102.655z M277.582,182.162
		c16.581-4.801,41.444-9.366,74.023-8.175c0.878,11.799,0.509,23.542-1.089,35.067C336.915,202.244,312.477,191.56,277.582,182.162z
		 M51.916,88.233c26.125-35.826,64.639-59.334,108.445-66.192c8.698-1.362,17.395-2.035,26.033-2.035
		c34.869,0,68.742,10.973,97.455,31.911c34.047,24.829,56.958,60.849,65.037,101.964c-5.443-0.142-10.684-0.136-15.72-0.003v-30.836
		c0-5.522-4.477-10-10-10s-10,4.478-10,10v32.08c-1.054,0.105-2.095,0.216-3.126,0.332v-27.411c0-5.522-4.477-10-10-10
		s-10,4.478-10,10v30.476c-21.627,4.263-35.979,10.346-42.75,13.68v-31.266l0.036,0.013c1.096,0.385,2.213,0.567,3.312,0.567
		c4.127-0.001,7.991-2.575,9.436-6.69c1.829-5.211-0.912-10.919-6.124-12.748L125.18,76.869c-2.443-0.858-5.126-0.735-7.481,0.346
		l-65.884,30.218c-5.02,2.303-7.223,8.238-4.92,13.259c1.801,3.927,5.827,6.117,9.897,5.789v39.829
		c-11.705,1.095-23.728,2.484-36.088,4.225C23.415,141.065,34.026,112.766,51.916,88.233z M211.721,350.043
		c-43.806,6.863-87.662-3.75-123.488-29.876c-1.58-1.152-3.128-2.337-4.66-3.538c66.35,1.552,119.759,13.748,157.461,26.075
		C231.6,345.993,221.803,348.464,211.721,350.043z"/>
</g>
<g>
</g>
<g>
</g>
<g>
</g>
<g>
</g>
<g>
</g>
<g>
</g>
<g>
</g>
<g>
</g>
<g>
</g>
<g>
</g>
<g>
</g>
<g>
</g>
<g>
</g>
<g>
</g>
<g>
</g>
</svg>
